<svg version="1.1" xmlns="http://www.w3.org/2000/svg" viewBox="0 0 807.66845703125 547.8291320800781" width="1615.3369140625" height="1095.6582641601562">
  <!-- svg-source:excalidraw -->
  
  <defs>
    <style>
      @font-face {
        font-family: "Virgil";
        src: url("https://excalidraw.com/Virgil.woff2");
      }
      @font-face {
        font-family: "Cascadia";
        src: url("https://excalidraw.com/Cascadia.woff2");
      }
    </style>
  </defs>
  <rect x="0" y="0" width="807.66845703125" height="547.8291320800781" fill="#ffffff"></rect><g transform="translate(10 217.35731595970515) rotate(0 95.08740234375 39.6197509765625)"><text x="0" y="55.239501953125" font-family="Virgil, Segoe UI Emoji" font-size="63.391601562500036px" fill="#000000" text-anchor="start" style="white-space: pre;" direction="ltr">State</text></g><g transform="translate(547.4893629380676 401.59742822515705) rotate(0 59 40)"><text x="0" y="56" font-family="Virgil, Segoe UI Emoji" font-size="63.391601562500036px" fill="#000000" text-anchor="start" style="white-space: pre;" direction="ltr">JSX</text></g><g transform="translate(479.968017578125 71.2645263671875) rotate(0 139 40)"><text x="0" y="56" font-family="Virgil, Segoe UI Emoji" font-size="63.391601562500036px" fill="#000000" text-anchor="start" style="white-space: pre;" direction="ltr">functions</text></g><g stroke-linecap="round"><g transform="translate(212.49639892578125 289.33936610843546) rotate(0 154.10705441869789 71.75450065979956)"><path d="M-0.03 0.25 C51.23 24, 256.73 119.67, 308.25 143.26" stroke="#364fc7" stroke-width="4.5" fill="none" stroke-dasharray="1.5 10"></path></g><g transform="translate(212.49639892578125 289.33936610843546) rotate(0 154.10705441869789 71.75450065979956)"><path d="M278.77 140.07 C289.8 142.36, 298.04 144.07, 306.41 141.77" stroke="#364fc7" stroke-width="4.5" fill="none" stroke-dasharray="1.5 8"></path></g><g transform="translate(212.49639892578125 289.33936610843546) rotate(0 154.10705441869789 71.75450065979956)"><path d="M287.38 121.44 C295.43 130.41, 300.58 138.81, 306.41 141.77" stroke="#364fc7" stroke-width="4.5" fill="none" stroke-dasharray="1.5 8"></path></g></g><g stroke-linecap="round"><g transform="translate(606.3828735351562 380.7920227050781) rotate(0 0.07636532224705661 -117.53727883137762)"><path d="M-0.94 0.67 C-0.58 -38.55, 0.8 -196.13, 1.09 -235.75 M0.77 -0.02 C1.1 -38.98, 0.51 -194.76, 0.4 -234.13" stroke="#364fc7" stroke-width="4" fill="none"></path></g><g transform="translate(606.3828735351562 380.7920227050781) rotate(0 0.07636532224705661 -117.53727883137762)"><path d="M11.87 -205.16 C8.87 -211.76, 4.54 -218, 1.5 -235.18 M11.01 -205.1 C8.84 -210.67, 5.8 -217.16, -0.02 -233.34" stroke="#364fc7" stroke-width="4" fill="none"></path></g><g transform="translate(606.3828735351562 380.7920227050781) rotate(0 0.07636532224705661 -117.53727883137762)"><path d="M-8.65 -205.09 C-7.26 -211.55, -7.19 -217.8, 1.5 -235.18 M-9.51 -205.03 C-7.54 -210.61, -6.45 -217.11, -0.02 -233.34" stroke="#364fc7" stroke-width="4" fill="none"></path></g></g><g stroke-linecap="round"><g transform="translate(451.90838623046875 119.87066650390625) rotate(0 -123.37548634240261 48.14855500914382)"><path d="M0.34 1.18 C-40.81 17.15, -205.91 80.04, -247.09 95.54 M-0.94 0.76 C-41.72 16.39, -204.41 77.99, -244.95 93.7" stroke="#364fc7" stroke-width="4" fill="none"></path></g><g transform="translate(451.90838623046875 119.87066650390625) rotate(0 -123.37548634240261 48.14855500914382)"><path d="M-220.31 72.22 C-227.85 78.47, -236.57 85.47, -243.74 93.21 M-222.45 73.34 C-227.3 77.42, -231.21 81.67, -245.47 93.98" stroke="#364fc7" stroke-width="4" fill="none"></path></g><g transform="translate(451.90838623046875 119.87066650390625) rotate(0 -123.37548634240261 48.14855500914382)"><path d="M-212.98 91.39 C-222.55 92.24, -233.35 93.82, -243.74 93.21 M-215.12 92.51 C-221.36 92.55, -226.8 92.8, -245.47 93.98" stroke="#364fc7" stroke-width="4" fill="none"></path></g></g><g transform="translate(29.521240234375 326.96148681640625) rotate(0 44.5 12.5)"><text x="0" y="18" font-family="Virgil, Segoe UI Emoji" font-size="20px" fill="#a61e4d" text-anchor="start" style="white-space: pre;" direction="ltr">username</text></g><g transform="translate(552.8827514648438 512.8291320800781) rotate(0 87 12.5)"><text x="0" y="18" font-family="Virgil, Segoe UI Emoji" font-size="20px" fill="#a61e4d" text-anchor="start" style="white-space: pre;" direction="ltr">value={username}</text></g><g transform="translate(518.66845703125 10) rotate(0 139.5 12.5)"><text x="0" y="18" font-family="Virgil, Segoe UI Emoji" font-size="20px" fill="#a61e4d" text-anchor="start" style="white-space: pre;" direction="ltr">setUsername(e.target.value)</text></g></svg>